<svg width="173" height="37" viewBox="0 0 173 37" fill="none" xmlns="http://www.w3.org/2000/svg">
<path d="M18.2233 25.5267C16.2478 27.5022 13.8989 28.49 11.1767 28.49C9.24778 28.49 7.57556 28.1556 6.16 27.4867C4.76 26.8178 3.64778 25.8533 2.82333 24.5933C1.99889 23.3333 1.39222 21.8944 1.00333 20.2767C0.63 18.6589 0.443333 16.8156 0.443333 14.7467C0.443333 13.2067 0.521111 11.8222 0.676667 10.5933C0.847778 9.36444 1.12 8.19 1.49333 7.07C1.86667 5.95 2.38 4.98556 3.03333 4.17667C3.68667 3.35222 4.48778 2.63667 5.43667 2.03C6.38556 1.42333 7.53667 0.972222 8.89 0.676667C10.2433 0.365556 11.7833 0.210001 13.51 0.210001C14.2878 0.210001 15.0267 0.256668 15.7267 0.350001C16.4422 0.443333 17.0489 0.56 17.5467 0.700001C18.0444 0.824445 18.5111 0.987778 18.9467 1.19C19.3978 1.37667 19.7478 1.54778 19.9967 1.70333C20.2611 1.84333 20.5022 1.99889 20.72 2.17C20.9378 2.34111 21.07 2.45778 21.1167 2.52C21.1789 2.58222 21.2256 2.62889 21.2567 2.66L20.9067 8.02667H16.66L15.33 4.92333C14.9878 4.73667 14.4356 4.64333 13.6733 4.64333C13.0511 4.64333 12.5378 4.69778 12.1333 4.80667C11.7289 4.91556 11.3244 5.14889 10.92 5.50667C10.5311 5.84889 10.22 6.35444 9.98667 7.02333C9.76889 7.67667 9.59 8.57111 9.45 9.70667C9.31 10.8267 9.24 12.1956 9.24 13.8133C9.24 17.1889 9.41889 19.6933 9.77667 21.3267C10.15 22.96 10.8889 23.7767 11.9933 23.7767C12.5378 23.7767 12.9967 23.73 13.37 23.6367C13.7433 23.5278 14.0933 23.3411 14.42 23.0767C14.7467 22.7967 14.9878 22.3922 15.1433 21.8633C15.2989 21.3189 15.3767 20.6267 15.3767 19.7867V17.4067L12.2967 16.7067V11.9467H22.68L22.6567 28H18.5033L18.2233 25.5267ZM32.8039 28H25.2673V12.9033L23.8673 12.04V9.40333L28.8839 8.16667H30.7739L31.4506 13.72C32.0884 9.90889 34.1339 8.00333 37.5873 8.00333C37.9762 8.00333 38.3806 8.07333 38.8006 8.21333L38.0073 16.52C37.6806 16.2244 36.965 16.0767 35.8606 16.0767C34.2739 16.0767 33.255 16.4967 32.8039 17.3367V28ZM51.1248 15.9367C51.1248 13.9611 51.0237 12.5611 50.8215 11.7367C50.6192 10.9122 50.2459 10.5 49.7015 10.5C49.2348 10.5 48.8537 10.5856 48.5581 10.7567C48.2626 10.9122 48.0448 11.1689 47.9048 11.5267C47.7648 11.8689 47.6715 12.2267 47.6248 12.6C47.5937 12.9578 47.5781 13.4167 47.5781 13.9767V15.9367H51.1248ZM49.2581 28.49C47.5159 28.49 45.9992 28.2256 44.7081 27.6967C43.4326 27.1678 42.4215 26.4289 41.6748 25.48C40.9437 24.5311 40.407 23.4656 40.0648 22.2833C39.7226 21.0856 39.5515 19.7556 39.5515 18.2933C39.5515 14.8089 40.4381 12.1722 42.2115 10.3833C43.9848 8.59444 46.4659 7.7 49.6548 7.7C52.7192 7.7 54.9126 8.42333 56.2348 9.87C57.557 11.3011 58.2181 13.6111 58.2181 16.8V19.39H47.5548V19.8333C47.5548 20.7511 47.6481 21.5056 47.8348 22.0967C48.037 22.6878 48.3248 23.1233 48.6981 23.4033C49.0715 23.6833 49.4526 23.87 49.8415 23.9633C50.2303 24.0567 50.7048 24.1033 51.2648 24.1033C51.8092 24.1033 52.3926 24.0333 53.0148 23.8933C53.6526 23.7533 54.2903 23.5356 54.9281 23.24C55.5815 22.9444 56.1259 22.5944 56.5615 22.19L57.9381 24.5467C57.3626 25.48 56.5148 26.2656 55.3948 26.9033C54.2903 27.5256 53.2248 27.9456 52.1981 28.1633C51.1715 28.3811 50.1915 28.49 49.2581 28.49ZM71.2224 15.9367C71.2224 13.9611 71.1213 12.5611 70.9191 11.7367C70.7169 10.9122 70.3436 10.5 69.7991 10.5C69.3324 10.5 68.9513 10.5856 68.6558 10.7567C68.3602 10.9122 68.1424 11.1689 68.0024 11.5267C67.8624 11.8689 67.7691 12.2267 67.7224 12.6C67.6913 12.9578 67.6758 13.4167 67.6758 13.9767V15.9367H71.2224ZM69.3558 28.49C67.6136 28.49 66.0969 28.2256 64.8058 27.6967C63.5302 27.1678 62.5191 26.4289 61.7724 25.48C61.0413 24.5311 60.5047 23.4656 60.1624 22.2833C59.8202 21.0856 59.6491 19.7556 59.6491 18.2933C59.6491 14.8089 60.5358 12.1722 62.3091 10.3833C64.0824 8.59444 66.5636 7.7 69.7524 7.7C72.8169 7.7 75.0102 8.42333 76.3324 9.87C77.6547 11.3011 78.3158 13.6111 78.3158 16.8V19.39H67.6524V19.8333C67.6524 20.7511 67.7458 21.5056 67.9324 22.0967C68.1347 22.6878 68.4224 23.1233 68.7958 23.4033C69.1691 23.6833 69.5502 23.87 69.9391 23.9633C70.328 24.0567 70.8024 24.1033 71.3624 24.1033C71.9069 24.1033 72.4902 24.0333 73.1124 23.8933C73.7502 23.7533 74.388 23.5356 75.0258 23.24C75.6791 22.9444 76.2236 22.5944 76.6591 22.19L78.0358 24.5467C77.4602 25.48 76.6124 26.2656 75.4924 26.9033C74.388 27.5256 73.3224 27.9456 72.2958 28.1633C71.2691 28.3811 70.2891 28.49 69.3558 28.49ZM88.3801 28H80.8434V12.9033L79.4434 12.04V9.54333L84.4601 8.16667H88.4268V11.1767L88.7068 10.8267C88.8934 10.5778 89.1657 10.2822 89.5234 9.94C89.8968 9.59778 90.309 9.26333 90.7601 8.93667C91.2112 8.59444 91.7479 8.30667 92.3701 8.07333C93.0079 7.82445 93.6301 7.7 94.2368 7.7C96.3679 7.7 97.869 8.28333 98.7401 9.45C99.6268 10.6167 100.07 12.5689 100.07 15.3067C100.07 15.4 100.07 15.54 100.07 15.7267C100.055 15.9133 100.047 16.0611 100.047 16.17V28H92.3468V15.4933C92.3934 14.0311 91.7712 13.3 90.4801 13.3C90.3868 13.3 90.2934 13.3078 90.2001 13.3233C90.1223 13.3389 90.0445 13.3544 89.9668 13.37C89.9045 13.3856 89.8268 13.4167 89.7334 13.4633C89.6557 13.4944 89.5857 13.5256 89.5234 13.5567C89.4612 13.5722 89.3912 13.6111 89.3134 13.6733C89.2357 13.72 89.1734 13.7589 89.1268 13.79C89.0801 13.8211 89.0101 13.8756 88.9168 13.9533C88.839 14.0156 88.7768 14.0622 88.7301 14.0933C88.699 14.1244 88.6368 14.1789 88.5434 14.2567C88.4657 14.3189 88.4112 14.3656 88.3801 14.3967V28ZM114.029 28H106.655L100.145 0.653334H107.915L109.152 10.08L110.995 19.2267L113.352 10.08L113.959 7.58333L112.162 0.653334H119.792L121.472 10.08L123.525 19.2267L124.809 10.08L126.185 0.653334H133.279L127.259 28H119.302L116.432 17.01L114.029 28ZM144.107 25.9233L143.874 26.18C143.718 26.3667 143.477 26.5844 143.15 26.8333C142.839 27.0822 142.474 27.3311 142.054 27.58C141.649 27.8289 141.151 28.0389 140.56 28.21C139.969 28.3967 139.363 28.49 138.74 28.49C134.54 28.49 132.44 26.4133 132.44 22.26C132.44 21.4511 132.588 20.7122 132.884 20.0433C133.179 19.3589 133.56 18.7833 134.027 18.3167C134.494 17.85 135.054 17.4378 135.707 17.08C136.36 16.7067 137.014 16.4189 137.667 16.2167C138.336 15.9989 139.036 15.82 139.767 15.68C140.498 15.54 141.151 15.4467 141.727 15.4C142.303 15.3533 142.855 15.33 143.384 15.33V14.91C143.384 13.9611 143.127 13.2922 142.614 12.9033C142.116 12.5144 141.307 12.32 140.187 12.32C139.223 12.32 138.219 12.4367 137.177 12.67C136.135 12.8878 135.318 13.1522 134.727 13.4633L133.234 10.29C134.291 9.60556 135.668 9.00667 137.364 8.49333C139.059 7.96444 140.786 7.7 142.544 7.7C144.099 7.7 145.383 7.85556 146.394 8.16667C147.405 8.46222 148.221 8.97556 148.844 9.70667C149.481 10.4222 149.933 11.34 150.197 12.46C150.461 13.5644 150.594 14.9722 150.594 16.6833V26.18L151.247 28H144.854L144.107 25.9233ZM142.264 24.3833C142.466 24.3833 142.653 24.3444 142.824 24.2667C143.01 24.1733 143.15 24.0878 143.244 24.01C143.337 23.9167 143.384 23.87 143.384 23.87V18.27C142.435 18.27 141.68 18.5344 141.12 19.0633C140.56 19.5767 140.28 20.3778 140.28 21.4667C140.28 23.4111 140.941 24.3833 142.264 24.3833ZM163.144 36.0267C161.542 36.0267 160.033 35.7933 158.618 35.3267C157.202 34.86 156.168 34.23 155.514 33.4367L156.728 30.9167C157.63 31.43 159.061 31.6867 161.021 31.6867C161.643 31.6867 162.18 31.6167 162.631 31.4767C163.082 31.3367 163.487 31.0878 163.844 30.73C164.202 30.3878 164.474 29.8978 164.661 29.26C164.848 28.6222 164.949 27.8367 164.964 26.9033V24.8967L164.731 25.27C164.576 25.5189 164.334 25.8222 164.008 26.18C163.697 26.5222 163.339 26.8722 162.934 27.23C162.53 27.5722 162.032 27.8678 161.441 28.1167C160.866 28.3656 160.274 28.49 159.668 28.49C157.35 28.49 155.717 27.8444 154.768 26.5533C153.819 25.2467 153.344 23.0533 153.344 19.9733V11.69L152.504 10.85V8.16667H160.998V21.4433C160.998 22.1589 161.107 22.6878 161.324 23.03C161.558 23.3567 162.017 23.52 162.701 23.52C162.903 23.52 163.106 23.4889 163.308 23.4267C163.51 23.3489 163.704 23.2478 163.891 23.1233C164.093 22.9989 164.303 22.8433 164.521 22.6567V11.69L163.238 10.85V8.16667H172.128V25.27C172.128 28.7078 171.397 31.36 169.934 33.2267C168.472 35.0933 166.209 36.0267 163.144 36.0267Z" fill="black"/>
</svg>
